<?xml version="1.0" encoding="UTF-8" standalone="no"?>
<!-- Generator: Adobe Illustrator 12.0.1, SVG Export Plug-In . SVG Version: 6.00 Build 51448)  -->

<svg
   xmlns:dc="http://purl.org/dc/elements/1.1/"
   xmlns:cc="http://creativecommons.org/ns#"
   xmlns:rdf="http://www.w3.org/1999/02/22-rdf-syntax-ns#"
   xmlns:svg="http://www.w3.org/2000/svg"
   xmlns="http://www.w3.org/2000/svg"
   xmlns:sodipodi="http://sodipodi.sourceforge.net/DTD/sodipodi-0.dtd"
   xmlns:inkscape="http://www.inkscape.org/namespaces/inkscape"
   version="1.0"
   id="Layer_1"
   width="611.8"
   height="618.2"
   viewBox="0 0 611.8 618.2"
   overflow="visible"
   enable-background="new 0 0 611.8 618.2"
   xml:space="preserve"
   inkscape:version="0.48.4 r9939"
   sodipodi:docname="CIRCLE_as-requested.svg"><metadata
   id="metadata4062"><rdf:RDF><cc:Work
       rdf:about=""><dc:format>image/svg+xml</dc:format><dc:type
         rdf:resource="http://purl.org/dc/dcmitype/StillImage" /><dc:title /></cc:Work></rdf:RDF></metadata><defs
   id="defs4060">
	
	

			
			
			
			
			
			
			
			
			
			
			
			
			
			
			
			
			
			
			
			
			
			
			
			
			
			
			
			
			
			
			
			
			
	
		
		
		
		
	</defs><sodipodi:namedview
   pagecolor="#ffffff"
   bordercolor="#666666"
   borderopacity="1"
   objecttolerance="10"
   gridtolerance="10"
   guidetolerance="10"
   inkscape:pageopacity="0"
   inkscape:pageshadow="2"
   inkscape:window-width="1600"
   inkscape:window-height="837"
   id="namedview4058"
   showgrid="false"
   inkscape:zoom="3.0540278"
   inkscape:cx="419.57513"
   inkscape:cy="531.72247"
   inkscape:window-x="-4"
   inkscape:window-y="-4"
   inkscape:window-maximized="1"
   inkscape:current-layer="layer1" />

<g
   inkscape:groupmode="layer"
   id="layer1"
   inkscape:label="Background"
   style="display:inline"><path
     id="Circle_2_"
     d="M 568.8,407.5 C 516.1,552.6 355.6,627.4 210.5,574.6 65.3,521.8 -9.4,361.3 43.4,216.3 96.2,71.2 256.6,-3.6 401.7,49.2 c 145,52.7 219.8,213.2 167.1,358.3 z"
     inkscape:connector-curvature="0"
     style="fill:#ffffff;stroke:#1f1f1f;stroke-width:8" /><line
     id="Diameter_line_2_"
     x1="50.900002"
     y1="430.89999"
     x2="559.70001"
     y2="193.60001"
     style="fill:#ffffff;stroke:#00ffff;stroke-width:4;stroke-opacity:1" /><line
     id="Radius_line_2_"
     x1="305"
     y1="312.29999"
     x2="568.70001"
     y2="408.29999"
     style="fill:#ffffff;stroke:#ff0000;stroke-width:4;stroke-opacity:1" /><circle
     id="Centre_point"
     cx="305"
     cy="312.29999"
     r="5.1999998"
     d="m 310.2,312.29999 c 0,2.87188 -2.32812,5.2 -5.2,5.2 -2.87188,0 -5.2,-2.32812 -5.2,-5.2 0,-2.87188 2.32812,-5.2 5.2,-5.2 2.87188,0 5.2,2.32812 5.2,5.2 z"
     sodipodi:cx="305"
     sodipodi:cy="312.29999"
     sodipodi:rx="5.1999998"
     sodipodi:ry="5.1999998"
     style="fill:#ffffff;stroke:#ff00ff;stroke-width:4;fill-opacity:1;stroke-opacity:1" /><path
     id="D"
     d="m 119.48893,362.6688 9.8,-4.7 c 2.8,-1.3 5.2,-1.5 7.5,-0.7 2.3,0.8 4.1,2.6 5.2,5.3 0.9,1.9 1.4,3.9 1.5,5.7 0.1,2 -0.1,3.9 -0.6,5.2 -0.5,1.5 -1.4,3 -2.8,4.5 -1.3,1.5 -2.9,2.6 -4.6,3.4 l -11.2,5.1 -0.2,-1.2 1.2,-0.6 c 0.7,-0.3 1.1,-0.7 1.3,-1 0.2,-0.4 0.2,-0.9 0.1,-1.5 l -3.4,-19 c 0,-0.1 -0.1,-0.3 -0.1,-0.4 -0.1,-0.3 -0.4,-0.5 -0.7,-0.5 -0.3,0 -0.9,0.1 -1.5,0.4 l -1.7,0.8 v -0.8 h 0.2 z m 15.1,18.1 c 1.4,-0.7 2.6,-1.5 3.4,-2.6 0.9,-1 1.4,-2.4 1.8,-3.9 0.4,-1.5 0.3,-3.3 0,-5.2 -0.5,-2.7 -1,-4.8 -1.9,-6.6 -1,-2.3 -2.5,-3.6 -4.2,-4 -1.2,-0.3 -2.9,0.1 -4.8,1 -1.2,0.6 -1.9,0.9 -2.1,1.2 -0.2,0.3 -0.2,0.8 -0.1,1.5 l 3.4,19 c 0,0.3 0.1,0.5 0.2,0.7 0.1,0.3 0.3,0.4 0.6,0.5 0.3,0.1 0.6,0 1,-0.2 l 2.7,-1.4 z"
     inkscape:connector-curvature="0"
     style="fill:#00ffff;fill-opacity:1" /><path
     id="R"
     d="m 400.3,314.5 10.5,3.9 c 2.6,0.9 4.3,2.2 5.1,3.6 0.8,1.4 1,2.9 0.4,4.6 -0.5,1.2 -1.1,2.2 -2.2,2.7 -0.9,0.6 -2.3,0.9 -3.9,0.9 -1.1,0 -2.6,-0.3 -4.6,-0.8 1,0.8 1.7,1.4 2,2.2 0.4,0.7 0.5,1.5 0.5,2.3 0,0.7 -0.5,2.1 -1.3,4.3 -0.5,1.3 -0.7,2.2 -0.7,2.6 0,0.4 0.2,0.6 0.6,0.8 0.8,0.3 1.9,-0.4 3.3,-2 l 0.8,0.6 c -2.1,2.5 -4.1,3.3 -5.9,2.5 -0.9,-0.4 -1.5,-0.9 -1.9,-1.8 -0.4,-0.8 -0.3,-1.9 0.2,-3.2 0.3,-0.7 0.6,-1.4 1,-2.2 0.6,-1 0.9,-1.7 1,-2.1 0.5,-1.1 0.5,-2.2 0.1,-2.8 -0.4,-0.8 -1.3,-1.3 -2.6,-1.9 l -2.3,-0.9 -5.6,8 c -0.1,0.1 -0.1,0.2 -0.1,0.3 -0.1,0.3 -0.1,0.6 0.1,0.8 0.2,0.3 0.6,0.6 1,0.8 l 2.4,0.8 -0.7,1 -10.4,-3.9 0.7,-1 1.9,0.7 c 0.9,0.3 1.4,0.1 2,-0.6 l 11.4,-16.2 c 0.1,-0.1 0.1,-0.2 0.2,-0.3 0.1,-0.3 0.1,-0.6 -0.2,-0.8 -0.3,-0.3 -0.6,-0.5 -1.1,-0.7 l -2.3,-0.8 0.6,-1.4 z m 1,12.1 3.1,1.1 c 1.7,0.6 3.1,0.8 4.3,0.8 1.1,-0.1 2.1,-0.5 2.7,-1 0.9,-0.9 1.7,-1.9 2.2,-3.1 0.4,-1.1 0.4,-2.1 -0.2,-3 -0.6,-0.9 -1.7,-1.6 -3.5,-2.3 -1.1,-0.4 -1.9,-0.6 -2.3,-0.6 -0.4,0.1 -0.8,0.3 -1,0.8 l -5.3,7.3 z"
     inkscape:connector-curvature="0"
     style="fill:#ff0000;fill-opacity:1" /><path
     id="C_1_"
     d="m 518.83289,70.821194 2.3,-0.8 1,0.5 -5.1,7.3 -0.9,-0.5 c 0.8,-1.7 1.2,-3.1 1.3,-4.2 0.2,-1.5 0.1,-2.8 -0.5,-4 -0.6,-1.1 -1.4,-1.9 -2.6,-2.5 -1.5,-0.7 -3.3,-0.8 -5,-0.2 -1.9,0.6 -4,2 -5.9,4.3 -1.8,2 -3.1,4 -4.2,6 -0.9,2.2 -1.2,4.1 -0.7,5.6 0.6,1.7 1.8,2.9 3.6,3.7 1.6,0.8 3.3,0.9 4.8,0.5 1.8,-0.4 3.5,-1.4 5,-3.1 l 0.8,0.9 c -1.8,1.7 -3.5,2.8 -5.1,3.4 -2.3,0.7 -4.5,0.5 -6.7,-0.6 -2.6,-1.1 -4.3,-3 -5.1,-5.3 -0.9,-2.5 -0.9,-4.8 0.4,-7.5 1.1,-2.5 2.8,-4.5 4.9,-6.1 2.3,-1.8 4.6,-2.8 6.8,-3.2 2.4,-0.4 4.5,-0.1 6.5,0.9 1,0.5 1.9,1 2.6,1.8 0.7,0.6 1.3,1.8 1.8,3.1 z"
     inkscape:connector-curvature="0"
     style="fill:#1f1f1f" /><path
     style="fill:#ffffff;stroke:#1f1f1f;stroke-width:8;fill-opacity:0"
     inkscape:connector-curvature="0"
     d="M 568.8,407.5 C 516.1,552.6 355.6,627.4 210.5,574.6 65.3,521.8 -9.4,361.3 43.4,216.3 96.2,71.2 256.6,-3.6 401.7,49.2 c 145,52.7 219.8,213.2 167.1,358.3 z"
     id="path4797" /></g><path
   style="font-size:30px;font-style:oblique;font-variant:normal;font-weight:normal;font-stretch:normal;text-align:center;line-height:125%;letter-spacing:6.6800046px;word-spacing:0px;writing-mode:lr-tb;text-anchor:middle;fill:#ff00ff;fill-opacity:1;stroke:none;font-family:SkolaSerifIt;-inkscape-font-specification:SkolaSerifIt Oblique"
   id="path3124"
   d="m 290.20034,283.48958 c -2.64625,-0.26687 -4.97927,0.1155 -6.99908,1.14711 -2.01983,1.03166 -3.64577,2.50595 -4.87784,4.42287 -1.23206,1.91696 -1.98956,4.06993 -2.27248,6.45896 -0.30631,2.63788 0.15393,4.89356 1.38071,6.76705 1.22678,1.87349 3.28754,3.00641 6.18229,3.39873 2.63684,0.26583 4.96545,-0.11706 6.98584,-1.14862 2.02035,-1.03158 3.6485,-2.50561 4.88445,-4.42211 1.2359,-1.9165 1.99561,-4.06923 2.27911,-6.45821 0.30442,-2.63807 -0.15954,-4.89417 -1.39188,-6.76833 -1.23239,-1.87412 -3.28944,-3.00659 -6.17112,-3.39745 z m -0.33485,1.07891 c 1.97991,0.2782 3.34904,1.17721 4.10741,2.697 0.75832,1.51984 1.00788,3.36264 0.74871,5.52843 -0.24517,2.12925 -0.83008,4.12901 -1.75465,5.99931 -0.92461,1.87031 -2.15049,3.35384 -3.67766,4.45063 -1.52721,1.09677 -3.31731,1.54948 -5.37031,1.35811 -1.96587,-0.27469 -3.32675,-1.16897 -4.08262,-2.68284 -0.75588,-1.51388 -1.0038,-3.36026 -0.7437,-5.53918 0.24476,-2.12928 0.82711,-4.12934 1.74692,-6.0002 0.91979,-1.87084 2.14089,-3.35492 3.66331,-4.45226 1.52239,-1.09731 3.30992,-1.55032 5.36258,-1.35905 z"
   inkscape:connector-curvature="0" /></svg>